<?xml version="1.0" encoding="UTF-8" standalone="no"?>
<!-- Created with Inkscape (http://www.inkscape.org/) -->

<svg
   xmlns:dc="http://purl.org/dc/elements/1.1/"
   xmlns:cc="http://creativecommons.org/ns#"
   xmlns:rdf="http://www.w3.org/1999/02/22-rdf-syntax-ns#"
   xmlns:svg="http://www.w3.org/2000/svg"
   xmlns="http://www.w3.org/2000/svg"
   xmlns:xlink="http://www.w3.org/1999/xlink"
   xmlns:sodipodi="http://sodipodi.sourceforge.net/DTD/sodipodi-0.dtd"
   xmlns:inkscape="http://www.inkscape.org/namespaces/inkscape"
   width="210mm"
   height="297mm"
   viewBox="0 0 210 297"
   version="1.1"
   id="svg3711"
   inkscape:version="0.92.2 5c3e80d, 2017-08-06"
   sodipodi:docname="JS-logo.svg">
  <defs
     id="defs3705">
    <linearGradient
       inkscape:collect="always"
       id="linearGradient875">
      <stop
         style="stop-color:#ff2a2a;stop-opacity:1"
         offset="0"
         id="stop871" />
      <stop
         style="stop-color:#ffd42a;stop-opacity:1"
         offset="1"
         id="stop873" />
    </linearGradient>
    <linearGradient
       inkscape:collect="always"
       xlink:href="#linearGradient875"
       id="linearGradient893"
       x1="-32.959091"
       y1="129.03668"
       x2="198.60748"
       y2="100.14071"
       gradientUnits="userSpaceOnUse"
       gradientTransform="rotate(7.1128712,-526.73888,428.28324)" />
  </defs>
  <sodipodi:namedview
     id="base"
     pagecolor="#ffffff"
     bordercolor="#666666"
     borderopacity="1.0"
     inkscape:pageopacity="0.0"
     inkscape:pageshadow="2"
     inkscape:zoom="1"
     inkscape:cx="176.19296"
     inkscape:cy="410.13413"
     inkscape:document-units="px"
     inkscape:current-layer="layer1"
     showgrid="false"
     showborder="false"
     inkscape:window-width="1920"
     inkscape:window-height="1031"
     inkscape:window-x="0"
     inkscape:window-y="1"
     inkscape:window-maximized="1"
     inkscape:object-nodes="false" />
  <metadata
     id="metadata3708">
    <rdf:RDF>
      <cc:Work
         rdf:about="">
        <dc:format>image/svg+xml</dc:format>
        <dc:type
           rdf:resource="http://purl.org/dc/dcmitype/StillImage" />
        <dc:title />
      </cc:Work>
    </rdf:RDF>
  </metadata>
  <g
     inkscape:label="Layer 1"
     inkscape:groupmode="layer"
     id="layer1">
    <path
       style="fill:url(#linearGradient893);fill-opacity:1;stroke:#000000;stroke-width:0.26458332;stroke-opacity:1"
       d="m 34.220352,105.47302 c -0.0511,0.0105 -0.08943,0.0535 -0.09353,0.11214 l -0.63872,9.18032 c -0.005,0.0782 0.0516,0.15436 0.128156,0.17105 l 0.220142,0.0481 -0.396875,0.39533 52.524958,74.38977 -0.316775,0.20929 -0.01705,-0.007 c -0.0479,-0.0196 -0.108054,-0.026 -0.167434,-0.0202 -0.0594,0.006 -0.117573,0.0237 -0.160713,0.0522 l -82.5381184,54.537 c -0.0863,0.057 -2.45992675,1.72198 -2.36419675,1.76113 L 12.87437,249.13919 c 0.0204,0.0148 0.0426,0.0267 0.0677,0.031 l 0.268717,0.0455 1.30173,0.2961 c 0.0896,0.0366 0.221972,0.025 0.309542,-0.0232 l 75.108073,12.7237 c 0.0805,0.0136 0.145809,-0.0414 0.146759,-0.12299 l 0.0031,-0.28164 c 0.0968,-0.0294 0.172664,-0.11244 0.186036,-0.21962 l 8.396901,-67.29047 35.145142,-23.22235 35.43143,46.63591 c 0.01,0.0237 0.0216,0.0465 0.0357,0.0651 l 49.65382,65.35621 -68.99475,-17.14312 c -0.021,-0.005 -0.0415,-0.006 -0.0605,-0.003 l 5.1e-4,0.001 c -0.0571,0.01 -0.10073,0.0553 -0.10697,0.12041 l -0.99994,10.1472 c -0.009,0.0863 0.0532,0.17245 0.13746,0.19328 l 80.0592,19.89283 0.15813,0.20775 c 0.0626,0.0823 0.13932,0.0697 0.17208,-0.0285 l 0.03,-0.0899 0.12299,0.0305 c 0.0843,0.0209 0.1586,-0.0316 0.16692,-0.11832 l 0.10904,-1.10588 3.58686,-10.73785 c 0.0328,-0.0981 0.008,-0.24323 -0.0543,-0.32557 l -37.08456,-48.81149 c -0.0102,-0.0249 -0.0225,-0.0483 -0.0372,-0.0677 l -53.31406,-70.1735 34.16381,-22.5733 c 0.0415,-0.0274 0.0597,-0.0596 0.0584,-0.0899 l 23.48953,-15.5205 c 0.0863,-0.057 0.0787,-0.1345 -0.0171,-0.17364 l -11.73158,-4.79764 c -0.0957,-0.0391 -0.24238,-0.0245 -0.32866,0.0326 l -52.20147,34.49247 c -0.0214,-0.0162 -0.0432,-0.0266 -0.0636,-0.0233 -0.0311,0.005 -0.058,0.0331 -0.0744,0.0822 l -0.014,0.0413 -30.18472,19.94452 c -0.0417,0.0276 -0.0599,0.0595 -0.0584,0.0899 l -5.43791,3.59306 6.1619,-49.382 0.28938,0.063 c 0.0766,0.0167 0.14236,-0.0329 0.1478,-0.1111 l 0.54467,-7.81864 0.0661,-0.53175 c 0.006,-0.0461 -0.004,-0.089 -0.0202,-0.1292 l 0.0486,-0.70021 c 0.005,-0.0782 -0.0521,-0.15488 -0.12868,-0.17157 L 34.275131,105.47405 c -0.0191,-0.004 -0.03768,-0.005 -0.05478,-0.001 z m 15.342735,12.93823 47.673574,10.38851 -6.058545,48.55104 z m 38.665337,82.57739 -6.286436,50.37832 -55.681355,-9.4325 z"
       id="rect7"
       inkscape:connector-curvature="0" />
  </g>
</svg>
